<svg width="100" height="100" viewBox="0 0 100 100" fill="none" xmlns="http://www.w3.org/2000/svg">
<circle cx="50" cy="50" r="50" fill="#7772CC"/>
<path d="M32.1656 25.488L37.7635 19.8643L60.9551 30.7529L54.2908 36.0017L32.1656 25.488Z" fill="#E6AA0B"/>
<path d="M37.7631 63.9605L66.9951 76.4559L66.9951 30.4162L37.7631 19.865L37.7631 63.9605Z" fill="#DDA100"/>
<path d="M37.7657 22.9912L64.4121 32.5872L64.404 33.2182L58.8374 38.7245L32.5003 28.2804L37.7657 22.9912Z" fill="#F5F5F5"/>
<path d="M64.4189 32.5908L58.715 38.6467L58.715 79.1821L64.3663 73.5891L64.4189 32.5908Z" fill="#CCCCCC"/>
<path d="M32.1654 69.5838L61.3975 80.135L61.3975 36.0395L32.1654 25.4883L32.1654 69.5838Z" fill="#05BFC9"/>
<path d="M32.1654 69.5838L61.3975 80.135L61.3975 36.0395L32.1654 25.4883L32.1654 69.5838Z" fill="url(#paint0_linear)"/>
<path d="M46.2396 45.8574L52.584 48.3211L52.584 41.8404L46.2396 39.3767L46.2396 45.8574Z" fill="#FFEFB3"/>
<path d="M37.656 42.7512L44.0537 45.2149L44.0537 38.7342L37.656 36.2705L37.656 42.7512Z" fill="#FFEFB3"/>
<path d="M46.1334 56.0349L52.3711 58.445L52.3711 52.125L46.1334 49.7148L46.1334 56.0349Z" fill="#FFEFB3"/>
<path d="M37.7095 52.9802L43.9473 55.3903L43.9473 49.0703L37.7095 46.6602L37.7095 52.9802Z" fill="#FFEFB3"/>
<path d="M37.7095 63.1267L43.9473 65.5904L43.9473 59.2704L37.7095 56.8066L37.7095 63.1267Z" fill="#FFEFB3"/>
<defs>
<linearGradient id="paint0_linear" x1="32.1654" y1="25.7009" x2="26.9227" y2="77.6524" gradientUnits="userSpaceOnUse">
<stop stop-color="#FED30A"/>
<stop offset="1" stop-color="#FFB702"/>
</linearGradient>
</defs>
</svg>
